<mxfile host="app.diagrams.net" modified="2024-07-02T22:47:51.834Z" agent="Mozilla/5.0 (X11; Linux x86_64) AppleWebKit/537.36 (KHTML, like Gecko) Chrome/126.0.0.0 Safari/537.36" etag="aiNHp6SLnnrhGhmLvcX8" version="24.6.4" type="device">
  <diagram name="Side-1" id="u0oy2K2NJPXeUs0tIeTG">
    <mxGraphModel dx="1234" dy="1145" grid="1" gridSize="10" guides="1" tooltips="1" connect="1" arrows="1" fold="1" page="1" pageScale="1" pageWidth="1169" pageHeight="827" math="0" shadow="0">
      <root>
        <mxCell id="0" />
        <mxCell id="1" parent="0" />
        <mxCell id="ds5zEs8urDWpPeWL_WKr-1" value="Consumers" style="rounded=1;whiteSpace=wrap;html=1;fillColor=#dae8fc;strokeColor=#6c8ebf;fontSize=18;verticalAlign=middle;" vertex="1" parent="1">
          <mxGeometry x="70" y="305" width="160" height="100" as="geometry" />
        </mxCell>
        <mxCell id="ds5zEs8urDWpPeWL_WKr-2" value="DACM" style="rounded=1;whiteSpace=wrap;html=1;fillColor=#ffe6cc;strokeColor=#d79b00;fontSize=18;" vertex="1" parent="1">
          <mxGeometry x="550" y="302.5" width="155" height="105" as="geometry" />
        </mxCell>
        <mxCell id="ds5zEs8urDWpPeWL_WKr-5" value="DB" style="shape=cylinder3;whiteSpace=wrap;html=1;boundedLbl=1;backgroundOutline=1;size=15;fillColor=#d5e8d4;strokeColor=#82b366;" vertex="1" parent="1">
          <mxGeometry x="602.5" y="510" width="60" height="80" as="geometry" />
        </mxCell>
        <mxCell id="ds5zEs8urDWpPeWL_WKr-6" value="Distributed&lt;div&gt;Cache&lt;/div&gt;" style="shape=cylinder3;whiteSpace=wrap;html=1;boundedLbl=1;backgroundOutline=1;size=15;fillColor=#d5e8d4;strokeColor=#82b366;" vertex="1" parent="1">
          <mxGeometry x="702.5" y="510" width="60" height="80" as="geometry" />
        </mxCell>
        <mxCell id="ds5zEs8urDWpPeWL_WKr-7" value="File Bucket" style="sketch=0;outlineConnect=0;fontColor=#232F3E;gradientColor=none;fillColor=#7AA116;strokeColor=none;dashed=0;verticalLabelPosition=bottom;verticalAlign=top;align=center;html=1;fontSize=12;fontStyle=0;aspect=fixed;pointerEvents=1;shape=mxgraph.aws4.bucket_with_objects;" vertex="1" parent="1">
          <mxGeometry x="492.5" y="512" width="75" height="78" as="geometry" />
        </mxCell>
        <mxCell id="ds5zEs8urDWpPeWL_WKr-9" value="" style="endArrow=classic;startArrow=classic;html=1;rounded=0;exitX=1;exitY=0.5;exitDx=0;exitDy=0;" edge="1" parent="1" source="ds5zEs8urDWpPeWL_WKr-1" target="ds5zEs8urDWpPeWL_WKr-2">
          <mxGeometry width="50" height="50" relative="1" as="geometry">
            <mxPoint x="560" y="610" as="sourcePoint" />
            <mxPoint x="610" y="560" as="targetPoint" />
          </mxGeometry>
        </mxCell>
        <mxCell id="ds5zEs8urDWpPeWL_WKr-3" value="CDN" style="ellipse;shape=cloud;whiteSpace=wrap;html=1;fillColor=#f5f5f5;strokeColor=#666666;fontColor=#333333;" vertex="1" parent="1">
          <mxGeometry x="280" y="280" width="220" height="150" as="geometry" />
        </mxCell>
        <mxCell id="ds5zEs8urDWpPeWL_WKr-10" value="" style="endArrow=classic;startArrow=classic;html=1;rounded=0;exitX=0.5;exitY=0;exitDx=0;exitDy=0;exitPerimeter=0;" edge="1" parent="1" source="ds5zEs8urDWpPeWL_WKr-5" target="ds5zEs8urDWpPeWL_WKr-2">
          <mxGeometry width="50" height="50" relative="1" as="geometry">
            <mxPoint x="560" y="610" as="sourcePoint" />
            <mxPoint x="610" y="560" as="targetPoint" />
          </mxGeometry>
        </mxCell>
        <mxCell id="ds5zEs8urDWpPeWL_WKr-11" value="" style="endArrow=classic;startArrow=classic;html=1;rounded=0;entryX=0.75;entryY=1;entryDx=0;entryDy=0;exitX=0.5;exitY=0;exitDx=0;exitDy=0;exitPerimeter=0;" edge="1" parent="1" source="ds5zEs8urDWpPeWL_WKr-6" target="ds5zEs8urDWpPeWL_WKr-2">
          <mxGeometry width="50" height="50" relative="1" as="geometry">
            <mxPoint x="560" y="610" as="sourcePoint" />
            <mxPoint x="610" y="560" as="targetPoint" />
          </mxGeometry>
        </mxCell>
        <mxCell id="ds5zEs8urDWpPeWL_WKr-12" value="" style="endArrow=classic;startArrow=classic;html=1;rounded=0;entryX=0.192;entryY=0.986;entryDx=0;entryDy=0;entryPerimeter=0;" edge="1" parent="1" source="ds5zEs8urDWpPeWL_WKr-7" target="ds5zEs8urDWpPeWL_WKr-2">
          <mxGeometry width="50" height="50" relative="1" as="geometry">
            <mxPoint x="580" y="500" as="sourcePoint" />
            <mxPoint x="610" y="560" as="targetPoint" />
          </mxGeometry>
        </mxCell>
      </root>
    </mxGraphModel>
  </diagram>
</mxfile>
